<?xml version="1.0" encoding="utf-8"?>
<!--Generator: Adobe Illustrator 27.5.0, SVG Export Plug-In . SVG Version: 6.00 Build 0)-->
<svg version="1.1" xmlns="http://www.w3.org/2000/svg" xmlns:xlink="http://www.w3.org/1999/xlink" x="0px" y="0px" viewBox="100 100 580 330" style="enable-background:new 0 0 750 500;" xml:space="preserve">
  <g>
    <path style="fill:#FFFFFF;" d="M70.698,64.657h608.604c2.034,0,3.684,1.649,3.684,3.684v363.318c0,2.035-1.649,3.684-3.684,3.684
			H70.698c-2.035,0-3.684-1.649-3.684-3.684V68.341C67.014,66.307,68.663,64.657,70.698,64.657z"/>
    <g>
      <g>
        <path style="fill:#D6EBED;" d="M640.664,214.988c0.034,5.472-0.057,11.071-0.275,16.738c-0.034,0.95-0.069,1.9-0.115,2.862
					c-0.515,11.654-1.488,23.595-2.77,35.433c-1.282,11.78-2.862,23.458-4.579,34.643c-0.355,2.301-0.721,4.579-1.076,6.846
					c-1.351,8.357-2.771,16.383-4.167,23.904c-0.664,3.595-1.339,7.075-1.992,10.418c-5.175,26.32-9.731,44.339-9.88,44.889
					c0,0.011,0,0.011,0,0.011l-2.759-0.011l-118.319-0.034l-14.631-0.011l-105.394-0.034l-14.631-0.011h-7.899
					c0,0-5.312-13.028-10.864-31.597c-11.322-37.825-23.664-98.651,5.713-119.246c4.259-2.988,8.621-5.415,13.051-7.384
					c4.808-2.152,9.708-3.778,14.631-5.003c43.023-10.784,88.771,7.957,104.146-35.158c0.389-1.099,0.801-2.175,1.248-3.228
					c3.526-8.529,8.54-15.707,14.631-21.615c28.22-27.384,79.486-27.339,113.121-6.663c1.786,1.088,3.515,2.244,5.198,3.457
					c1.5,1.076,2.954,2.21,4.362,3.389c1.397,1.145,2.736,2.347,4.018,3.606c0.927,0.882,1.832,1.797,2.69,2.736
					c1.088,1.168,2.129,2.37,3.125,3.606c0.149,0.172,0.286,0.355,0.435,0.538c0.572,0.721,1.122,1.454,1.66,2.198
					c0.847,1.168,1.66,2.37,2.427,3.606c0.549,0.893,1.088,1.809,1.591,2.736c0.652,1.179,1.259,2.381,1.832,3.606
					c0.424,0.904,0.813,1.809,1.191,2.736c0.481,1.179,0.916,2.381,1.317,3.606c0.298,0.893,0.572,1.809,0.824,2.736
					c0.332,1.179,0.618,2.381,0.882,3.606c0.412,1.981,0.721,4.018,0.927,6.091c0.149,1.362,0.24,2.748,0.286,4.156
					C640.653,213.751,640.664,214.37,640.664,214.988z"/>
        <rect x="341.317" y="345.832" style="fill:#D6EBED;" width="286.368" height="44.893"/>
      </g>
      <path style="fill:#51BACE;" d="M275.913,384.526c0,0-18.675-6.982-18.025-21.746c0.466-10.589,9.732-13.423,3.256-22.87
				c-11.598-16.917,8.712-29.268,16.744-22.111c8.032,7.156,13.19,20.86,8.751,27.628c-4.439,6.768,9.115,14.714,9.099,23.908
				c-0.014,7.893-3.866,15.097-3.866,15.097L275.913,384.526z"/>
      <path style="fill:#F0F0F1;" d="M285.508,380.803c-0.049-0.082-4.949-8.207-8.13-12.783c-3.274-4.71-5.276-12.981-2.368-20.839
				c2.802-7.571-2.58-18.452-2.635-18.561l0.631-0.317c0.229,0.456,5.575,11.263,2.666,19.124c-2.82,7.619-0.884,15.631,2.286,20.19
				c3.194,4.595,8.106,12.74,8.155,12.821L285.508,380.803z"/>
      <g>
        <path style="fill:#FFFFFF;" d="M640.664,214.988c0.034,5.472-0.057,11.071-0.275,16.738c-0.034,0.95-0.069,1.9-0.115,2.862
					c-0.515,11.654-1.488,23.595-2.77,35.433c-1.282,11.78-2.862,23.458-4.579,34.643c-0.355,2.301-0.721,4.579-1.076,6.846h-82.268
					V160.734h58.272c1.786,1.088,3.515,2.244,5.198,3.457c1.5,1.076,2.954,2.21,4.362,3.389c1.397,1.145,2.736,2.347,4.018,3.606
					c0.927,0.882,1.832,1.797,2.69,2.736c1.088,1.168,2.129,2.37,3.125,3.606c0.149,0.172,0.286,0.355,0.435,0.538
					c0.572,0.721,1.122,1.454,1.66,2.198c0.847,1.168,1.66,2.37,2.427,3.606c0.549,0.893,1.088,1.809,1.591,2.736
					c0.652,1.179,1.259,2.381,1.832,3.606c0.424,0.904,0.813,1.809,1.191,2.736c0.481,1.179,0.916,2.381,1.317,3.606
					c0.298,0.893,0.572,1.809,0.824,2.736c0.332,1.179,0.618,2.381,0.882,3.606c0.412,1.981,0.721,4.018,0.927,6.091
					c0.149,1.362,0.24,2.748,0.286,4.156C640.653,213.751,640.664,214.37,640.664,214.988z"/>
        <g>
          <path style="fill:#ACFAFF;" d="M640.664,214.988c0.034,5.472-0.057,11.071-0.275,16.738c-0.034,0.95-0.069,1.9-0.115,2.862
						c-0.515,11.654-1.488,23.595-2.77,35.433c-1.282,11.78-2.862,23.458-4.579,34.643h-76.498V167.58h60.985
						c1.397,1.145,2.736,2.347,4.018,3.606c0.927,0.882,1.832,1.797,2.69,2.736c1.088,1.168,2.129,2.37,3.125,3.606
						c0.149,0.172,0.286,0.355,0.435,0.538c0.572,0.721,1.122,1.454,1.66,2.198c0.847,1.168,1.66,2.37,2.427,3.606
						c0.549,0.893,1.088,1.809,1.591,2.736c0.652,1.179,1.259,2.381,1.832,3.606c0.424,0.904,0.813,1.809,1.191,2.736
						c0.481,1.179,0.916,2.381,1.317,3.606c0.298,0.893,0.572,1.809,0.824,2.736c0.332,1.179,0.618,2.381,0.882,3.606
						c0.412,1.981,0.721,4.018,0.927,6.091c0.149,1.362,0.24,2.748,0.286,4.156C640.653,213.751,640.664,214.37,640.664,214.988z"/>
          <path style="fill:#7BBDE6;" d="M637.505,270.02c-1.282,11.78-2.862,23.458-4.579,34.643h-30.063L637.505,270.02z"/>
          <g>
            <path style="opacity:0.5;fill:#FFFFFF;" d="M640.39,231.725c-0.034,0.95-0.069,1.9-0.115,2.862l-27.625,27.625
							c-0.183,0.195-0.435,0.286-0.687,0.286c-0.252,0-0.492-0.092-0.687-0.286c-0.378-0.378-0.378-0.996,0-1.374L640.39,231.725z"/>
            <path style="opacity:0.5;fill:#FFFFFF;" d="M636.073,225.771l-40.959,40.959c-0.69,0.69-0.69,1.808,0,2.498
							c0.345,0.345,0.797,0.517,1.249,0.517s0.904-0.172,1.249-0.517l40.959-40.959c0.69-0.69,0.69-1.808,0-2.498
							C637.881,225.082,636.763,225.082,636.073,225.771z"/>
            <path style="opacity:0.5;fill:#FFFFFF;" d="M640.618,213.145l-41.695,41.706c-0.309,0.309-0.721,0.458-1.122,0.458
							c-0.412,0-0.813-0.149-1.122-0.458c-0.63-0.618-0.63-1.626,0-2.255l43.412-43.412c0.069-0.069,0.149-0.137,0.24-0.195
							C640.481,210.351,640.573,211.736,640.618,213.145z"/>
            <path style="opacity:0.5;fill:#FFFFFF;" d="M614.843,219.253l-39.091,39.091c-0.38,0.379-0.38,0.994,0,1.374
							c0.19,0.19,0.438,0.285,0.687,0.285c0.249,0,0.497-0.095,0.687-0.285l39.091-39.091c0.379-0.379,0.379-0.994,0-1.374
							C615.837,218.874,615.222,218.874,614.843,219.253z"/>
          </g>
        </g>
        <g>
          <g>
            <path style="fill:#97998A;" d="M558.022,271.408c0,4.1-1.076,6.11-2.084,6.624c-0.511,0.261-1.054,0.187-1.613-0.219
							c-1.388-1.007-2.502-3.734-3.056-7.482c-0.697-4.711-0.49-10.853,0.598-17.761c4.283-27.193,2.451-51.018,2.432-51.255
							l-0.528,0.042c0.019,0.237,1.845,24.003-2.427,51.131c-1.096,6.961-1.304,13.158-0.599,17.921
							c0.575,3.888,1.767,6.743,3.269,7.833c0.43,0.312,0.88,0.469,1.319,0.469c0.29,0,0.575-0.069,0.847-0.207
							c1.486-0.758,2.373-3.41,2.373-7.096V167.575h-0.53V271.408z"/>
            <path style="fill:#97998A;" d="M558.495,229.547h-0.416c-0.694,0-1.257,0.563-1.257,1.257v10.634
							c0,0.694,0.563,1.257,1.257,1.257h0.416c0.694,0,1.257-0.563,1.257-1.257v-10.634
							C559.752,230.11,559.19,229.547,558.495,229.547z"/>
          </g>
          <path style="fill:#148FA2;" d="M639.405,202.898h-99.36l4.144-3.606h94.334C638.855,200.471,639.142,201.673,639.405,202.898z"/>
          <path style="fill:#148FA2;" d="M635.192,190.214h-95.147l4.144-3.606h89.171C634.013,187.786,634.62,188.989,635.192,190.214z"/>
          <path style="fill:#148FA2;" d="M637.699,196.556h-97.654l4.144-3.606h92.194C636.863,194.129,637.299,195.331,637.699,196.556z
						"/>
          <path style="fill:#148FA2;" d="M631.769,183.871h-91.724l4.144-3.606h85.153C630.189,181.433,631.002,182.635,631.769,183.871z
						"/>
          <path style="fill:#148FA2;" d="M621.431,171.186h-81.386l4.144-3.606h73.224C618.809,168.725,620.149,169.927,621.431,171.186z
						"/>
          <path style="fill:#148FA2;" d="M627.247,177.529h-87.202l4.144-3.606h79.932C625.209,175.09,626.251,176.292,627.247,177.529z"/>
        </g>
      </g>
      <g>
        <path style="fill:#148FA2;" d="M323.167,201.397c-0.799-0.177-1.181,0.919-1.36,1.717c-1.279,5.451-7.736,7.488-10.269,12.155
					c-2.947,5.517-0.01,12.036-1.007,17.894c-1.038,6.083-6.005,10.869-6.78,17.081c-3.157-12.446,6.912-15.9-1.71-29.151
					c-4.463-9.316,0.223-25.216-10.454-30.584c-0.906,0.286-0.655,1.608-0.371,2.515c1.875,6.218-3.431,12.009-3.27,18.166
					c0.239,7.252,6.969,12.098,9.363,18.562c2.436,6.587,0.352,14.082,2.929,20.697c-3.176-3.639-2.969-9.34-6.361-12.675
					c-1.573-1.524-3.71-2.289-5.566-3.451c-3.529-2.21-5.934-5.775-8.642-8.938c-2.708-3.163-6.147-6.155-10.299-6.464
					c-1.665-0.167-1.391,1.318-0.215,2.072c3.907,3.181,3.014,9.207,5.794,13.094c3.305,4.556,9.736,4.745,14.084,7.858
					c4.97,3.548,6.906,10.552,12.76,13.072c0.61,0.25,2.404,0.935,2.914,0.163c1.205,0.582,1.427-1.649,1.502-2.371
					c0.381-7.387,8.414-10.649,10.844-16.83c0.758-2.312,0.483-4.82,0.743-7.24C318.477,219.855,328.827,210.009,323.167,201.397z"/>
        <g>
          <path style="fill:#1DA5B4;" d="M271.572,200.725c0.867-0.4,1.575,0.753,1.979,1.619c2.817,5.895,10.685,6.608,14.736,11.296
						c4.734,5.555,3.011,13.718,5.608,20.147c2.7,6.675,9.555,10.893,11.986,17.781c0.497-14.975-11.842-16.402-5.317-33.656
						c2.765-11.732-6.54-28.688,4.293-37.469c1.104,0.101,1.147,1.67,1.05,2.774c-0.588,7.555,6.905,12.834,8.256,19.892
						c1.536,8.326-4.928,15.528-6.046,23.493c-1.135,8.116,3.109,16.14,1.82,24.323c2.713-4.94,1.056-11.387,4.091-16.035
						c1.413-2.129,3.659-3.534,5.484-5.321c3.471-3.399,5.325-8.063,7.623-12.343c2.298-4.28,5.473-8.548,10.129-9.936
						c1.856-0.605,1.914,1.156,0.761,2.308c-3.661,4.6-1.141,11.247-3.341,16.37c-2.632,6.018-9.915,7.836-14.096,12.468
						c-4.781,5.283-5.242,13.75-11.287,18.082c-0.633,0.437-2.507,1.665-3.281,0.911c-1.228,0.964-2.038-1.524-2.303-2.328
						c-2.275-8.326-12.245-10.042-16.556-16.482c-1.44-2.447-1.753-5.374-2.651-8.068
						C281.519,220.596,267.267,211.953,271.572,200.725z"/>
          <path style="fill:#51BACE;" d="M273.81,205.13c2.899,8.717,12.819,7.526,14.113,19.702
						c2.376,18.599,11.741,16.804,18.986,29.657c3.829-9.218-3.007-18.297-3.121-27.557c-0.128-7.381,3.332-14.447,2.39-21.86
						c-0.846-6.881-4.512-13.472-3.245-20.534c0.103-0.566,0.986-0.425,0.883,0.142c-1.165,6.603,2.082,12.816,3.097,19.216
						c1.348,7.349-1.891,14.427-2.221,21.707c-0.403,9.908,7.234,19.562,2.985,29.361c6.285-4.222,5.515-12.839,9.15-18.795
						c2.659-4.407,7.568-6.595,10.914-10.364c4.025-4.491,3.468-11.196,7.079-15.926c0.349-0.458,1.04,0.11,0.691,0.568
						c-3.352,4.431-2.997,10.576-6.345,15.015c-3.025,4.082-8.015,6.169-10.998,10.289c-4.376,6.189-3.164,15.796-10.239,20.125
						c-0.32,0.19-0.65-0.05-0.708-0.322c-0.073,0.015-0.148,0.008-0.22-0.012c-0.216,0.149-0.553,0.135-0.677-0.181
						c-2.762-7.072-10.376-10.474-14.56-16.526c-3.946-5.431-3.913-12.35-5.935-18.501c-2.312-6.651-11.28-8.054-12.907-15.109
						C272.796,204.665,273.686,204.574,273.81,205.13z"/>
        </g>
        <g>
          <g>
            <g>
              <g>
                <g>
                  <path style="fill:#3E4A86;" d="M322.248,249.019c-2.463,11.289-5.875,26.86-8.346,38.144h-16.653
										c-2.47-11.283-5.889-26.855-8.348-38.144H322.248z"/>
                </g>
              </g>
            </g>
          </g>
          <g>
            <g>
              <polygon style="fill:#FFFFFF;" points="289.811,253.189 290.073,254.389 321.076,254.389 321.337,253.189 							"/>
              <polygon style="fill:#FFFFFF;" points="290.736,257.427 290.889,258.127 320.259,258.127 320.413,257.427 320.521,256.927 
								290.627,256.927 							"/>
              <polygon style="fill:#FFFFFF;" points="295.203,277.824 315.947,277.824 316.21,276.623 294.94,276.623 							"/>
              <polygon style="fill:#FFFFFF;" points="296.023,281.562 315.129,281.562 315.392,280.361 295.759,280.361 							"/>
            </g>
          </g>
        </g>
      </g>
      <g>
        <g>
          <g>
            <path style="fill:#232033;" d="M485.171,235.444c0.331,0.172,0.847,0.287,0.995,0.343c0.696,0.263,1.392,0.524,2.09,0.782
							c0.256,0.095,0.512,0.189,0.769,0.282c0.211,0.078,0.421,0.153,0.633,0.23c0.544,0.196,1.09,0.388,1.637,0.576
							c0.194,0.067,0.388,0.133,0.581,0.197c0.165,0.057,0.332,0.112,0.498,0.167c0.996,0.328,1.998,0.641,3.007,0.93l0.001,0
							c0.2,0.057,0.398,0.112,0.598,0.166c1.589,0.436,3.195,0.807,4.819,1.086c4.472,0.766,9.039,0.811,13.551,0.388
							c0.207-0.019,0.413-0.039,0.62-0.062c0.073-0.007,0.147-0.014,0.219-0.022c0.7-0.076,1.399-0.161,2.097-0.257
							c0.216-0.029,0.432-0.06,0.648-0.091c1.276-0.186,2.546-0.405,3.812-0.649c0.191-0.037,0.382-0.074,0.573-0.113
							c0.811-0.161,1.621-0.334,2.428-0.516c0.861-0.193,1.719-0.396,2.576-0.609c0.19-0.047,0.38-0.094,0.571-0.143
							c0.526-0.133,1.05-0.269,1.573-0.408c0.772-0.205,1.549-0.401,2.314-0.63c0.572-0.172,0.755-0.479,0.24-0.907
							c-1.102-0.915-1.649-2.375-1.935-3.813c-0.286-1.439-0.36-2.923-0.753-4.332c-0.425-1.526-1.39-2.676-2.662-3.519
							c-2.271-1.504-4.697-2.942-5.845-5.622c-0.992-2.315-1.457-5.076-1.902-7.706c-0.144-0.848-0.285-1.683-0.441-2.484
							c-0.195-0.998-0.424-1.98-0.718-2.936c-0.547-1.777-1.314-3.458-2.483-4.966c-4.181-5.387-12.139-6.456-18.036-3.598
							c-0.165,0.079-0.327,0.162-0.488,0.248c-0.135,0.072-0.269,0.145-0.402,0.222c-0.349,0.2-0.689,0.416-1.022,0.649
							c-1.633,1.139-2.796,2.496-3.563,4.081c-0.017,0.033-0.032,0.065-0.048,0.098c-0.283,0.601-0.51,1.232-0.685,1.895
							c-0.026,0.097-0.05,0.194-0.073,0.293c-0.145,0.615-0.25,1.258-0.313,1.927c-0.031,0.339-0.053,0.686-0.065,1.039
							c-0.002,0.032-0.003,0.066-0.004,0.099c-0.035,1.219,0.01,2.457,0.093,3.692c0.076,1.124,0.181,2.245,0.285,3.345
							c0.009,0.09,0.015,0.18,0.022,0.269c0.141,2.164-0.508,3.974-1.608,5.845c-1.15,1.96-2.535,3.896-2.8,6.174
							c-0.166,1.423,0.185,2.851,0.037,4.262c-0.143,1.357-0.8,2.628-1.663,3.636c-0.001,0.001-0.002,0.002-0.004,0.004
							C484.789,235.168,484.932,235.321,485.171,235.444z"/>
          </g>
          <g>
            <rect x="498.428" y="344.855" style="fill:#58A3C4;" width="20.113" height="3.276"/>
            <rect x="495.984" y="361.716" style="fill:#58A3C4;" width="25.002" height="3.276"/>
            <polygon style="fill:#69C4EB;" points="523.337,377.837 520.075,377.837 515.906,339.166 515.641,336.702 515.238,332.958 
							514.813,329.019 514.571,326.77 518.821,326.394 519.05,329.019 519.397,332.958 519.728,336.702 519.944,339.166 						"/>
            <polygon style="fill:#69C4EB;" points="501.711,326.77 501.468,329.019 501.043,332.958 500.641,336.702 500.375,339.166 
							496.207,377.837 492.944,377.837 496.337,339.166 496.553,336.702 496.884,332.958 497.231,329.019 497.46,326.394 						"/>
            <polygon style="fill:#58A3C4;" points="496.884,332.958 501.043,332.958 500.641,336.702 500.375,339.166 496.337,339.166 
							496.553,336.702 						"/>
            <polygon style="fill:#58A3C4;" points="519.944,339.166 515.906,339.166 515.641,336.702 515.238,332.958 519.397,332.958 
							519.728,336.702 						"/>
            <path style="fill:#231F20;" d="M521.355,323.674h-27.494c-2.652,0-4.802,2.15-4.802,4.802l0,0c0,2.652,2.15,4.802,4.802,4.802
							h27.494c2.652,0,4.802-2.15,4.802-4.802l0,0C526.157,325.824,524.007,323.674,521.355,323.674z"/>
          </g>
          <rect x="488.412" y="273.084" style="fill:#35BEFA;" width="21.876" height="18.758"/>
          <g id="XMLID_234_">
            <path style="fill:#75CEF7;" d="M473.799,254.179l4.634-10.666c4.855-9.269,14.344-11.522,14.344-11.522l6.65-2.057
							l13.505-2.648l10.078,2.103c0,0,6.229,0.43,11.694,11.672c0.149,0.307,0.277,0.628,0.385,0.953l10.872,32.615
							c0,0,4.414,9.931-7.282,12.358l-15.595,0.883l-18.611,0.368c0,0-2.207-3.237,0-8.754l-15.089-0.294l-15.586-16.33V254.179z"/>
          </g>
          <path style="fill:#1683B2;" d="M458.351,311.114c0,0-4.172,9.602-11.519,20.579l14.167,36.944c0,0,6.739,1.251,11.424-3.678
						c0,0-4.337-35.304-11.408-52.568C460.124,311.981,459.235,311.556,458.351,311.114z"/>
          <path style="fill:#1E769C;" d="M403.953,376.145c3.536,1.461,7.687,0.384,7.687,0.384c1.883-3.498,0.241-6.226,0.241-6.226
						c-3.69-0.231-6.698,0.73-6.698,0.73c-11.069,2.537-13.26-2.619-13.26-2.619c-2.073-0.922-4.555-1.606-5.588-1.441
						c-1.353,0.216-2.234,1.544-1.937,2.882c1.335,6.029,13.099,4.983,13.099,4.983S401.454,374.641,403.953,376.145z"/>
          <path style="fill:#5A2210;" d="M407.138,359.141c-2.472,3.095-8.291,9.298-15.216,9.273c0,0,2.191,5.156,13.26,2.619
						c0,0,2.998-0.807,6.688-0.577c0,0,0.146-2.974,1.516-6.322C411.583,363.663,408.876,362.419,407.138,359.141z"/>
          <path style="fill:#33A3D3;" d="M523.966,290.223c0,0,8.533,35.117-17.949,33.3c0,0-25.305-1.228-47.667-12.41
						c0,0-12.826,32.366-44.43,53.846c0,0-6.179,0-8.503-6.767l34.985-60.613c0,0,4.708-9.71,18.243-9.71h64.438L523.966,290.223z"/>
          <path style="fill:#5A2210;" d="M476.895,375.557c-1.223-0.601-2.316-1.444-3.098-2.56c-0.953-1.358-2.04-3.491-2.83-6.742
						c-2.835,2.134-6.043,2.527-8.037,2.523c1.167,2.649,3.197,7.982,3.586,13.762c0,0,0.531,6.62-1.169,10.151
						c0,0,3.045,1.765,7.9-5.076l5.186-8.165C478.433,379.451,480.102,377.134,476.895,375.557z"/>
          <path style="fill:#1E769C;" d="M477.595,375.964c2.238,1.539,0.838,3.487,0.838,3.487l-5.186,8.165
						c-4.855,6.841-7.9,5.076-7.9,5.076c-2.059,2.427-2.773,4.175-2.839,5.42c-0.091,1.736,1.582,3.033,3.264,2.597
						c6.029-1.561,8.909-7.244,8.909-7.244c1.696-3.307,5.216-7.46,6.755-9.207c0.769-0.873,1.245-1.99,1.223-3.153
						C482.585,377.208,477.595,375.965,477.595,375.964z"/>
          <path style="fill:#5A2210;" d="M503.851,286.79l-3.882-1.402c-0.359-0.129-0.737-0.196-1.118-0.196l-2.786-5.156h2.468
						c0.3,0,0.599,0.041,0.888,0.122l4.43,1.242C503.851,281.399,503.092,284.092,503.851,286.79z"/>
          <path style="fill:#71CEF7;" d="M523.01,249.766l11.255,25.524c-11.696,0.662-29.792,4.193-29.792,4.193
						s-1.223,2.023-0.561,7.503c0,0-2.759-4.34-0.061-8.239c0,0,4.217-2.611,26.432-4.671L523.01,249.766z"/>
          <path style="fill:#148FA2;" d="M525.277,233.803c0,0-5.507,1.887,2.398,26.542l-1.21,0.967
						C526.465,261.313,516.988,235.734,525.277,233.803z"/>
          <path style="fill:#71CEF7;" d="M488.412,239.982c0,0-3.367,4.34-4.912,14.197h3.31
						C486.81,254.179,485.379,249.471,488.412,239.982z"/>
          <g>
            <path style="fill:#232033;" d="M501.624,196.907c-0.073,2.422,0.856,4.641,2.411,6.261c0.183,0.193,0.377,0.376,0.578,0.55
							c0.277,0.24,0.569,0.463,0.875,0.667c0.184,0.123,0.372,0.239,0.567,0.347c0.563,0.316,1.167,0.57,1.801,0.755
							c0.189,0.056,0.382,0.105,0.577,0.147c0.516,0.114,1.048,0.18,1.595,0.197c0.098,0.003,0.196,0.004,0.293,0.003
							c0.222,0.001,0.441-0.009,0.658-0.026c4.352-0.342,7.84-3.916,7.974-8.38c0.029-0.95-0.097-1.868-0.354-2.733
							c-0.062-0.209-0.132-0.413-0.209-0.615c-0.47-1.235-1.217-2.336-2.164-3.229c-0.145-0.135-0.294-0.266-0.448-0.391
							c-1.417-1.161-3.211-1.886-5.181-1.955l-0.049-0.001c-0.207-0.006-0.412-0.005-0.616,0.004
							c-0.838,0.033-1.646,0.186-2.409,0.444c-0.252,0.085-0.501,0.181-0.743,0.289
							C503.825,190.547,501.727,193.462,501.624,196.907z"/>
            <g>
              <g>
                <path style="fill:#151B1C;" d="M510.32,205.833c0.222,0.001,0.441-0.009,0.658-0.026c0.962-2.211,2.048-4.209,3.281-6.031
									c1.289-1.905,2.751-3.614,4.339-5.082c-0.062-0.209-0.132-0.413-0.209-0.615c-1.697,1.539-3.257,3.344-4.621,5.363
									C512.465,201.368,511.322,203.483,510.32,205.833z"/>
              </g>
              <g>
                <path style="fill:#151B1C;" d="M507.856,205.487c0.189,0.056,0.382,0.105,0.577,0.147
									c1.523-5.406,4.196-10.472,7.792-14.783c-0.145-0.135-0.294-0.266-0.448-0.391
									C512.121,194.842,509.402,199.993,507.856,205.487z"/>
              </g>
              <g>
                <path style="fill:#151B1C;" d="M505.488,204.385c0.184,0.123,0.372,0.239,0.567,0.347
									c0.471-5.633,2.023-11.169,4.541-16.228l-0.049-0.001c-0.207-0.006-0.412-0.005-0.616,0.004
									C507.502,193.472,505.987,198.878,505.488,204.385z"/>
              </g>
              <g>
                <path style="fill:#151B1C;" d="M504.034,203.168c0.183,0.193,0.377,0.376,0.578,0.55c0.117-5.027,1.111-10.061,2.909-14.767
									c-0.252,0.085-0.501,0.181-0.743,0.289C505.137,193.695,504.2,198.43,504.034,203.168z"/>
              </g>
            </g>
          </g>
          <path style="fill:#5A2210;" d="M507.101,238.478c-3.642,0.324-6.829-2.055-7.119-5.314c-0.005-0.051-0.006-0.101-0.01-0.152
						l-0.004,0.001l0-0.074c-0.008-0.159-0.008-0.316-0.001-0.472l-0.011-4.191l-0.034-13.027l10.146-0.902l2.59,14.661l0.405,2.295
						c0.034,0.152,0.062,0.307,0.082,0.464l0.013,0.073l-0.004,0.001c0.006,0.05,0.013,0.099,0.017,0.151
						C513.461,235.25,510.743,238.154,507.101,238.478z"/>
          <path style="fill:#391106;" d="M512.657,229.007c-2.111,0.611-4.307,0.907-6.501,0.797c-2.136-0.109-4.266-0.622-6.2-1.528
						l-0.034-13.027l10.146-0.902L512.657,229.007z"/>
          <path style="fill:#5A2210;" d="M492.189,212.948c0.758-0.458,1.772-0.224,2.488,0.297s1.217,1.277,1.763,1.974l0.275,4.205
						c-1.825-0.605-3.741-1.379-4.814-2.975c-0.366-0.544-0.619-1.184-0.603-1.84C491.314,213.955,491.628,213.288,492.189,212.948z
						"/>
          <path style="fill:#5A2210;" d="M493.126,210.351c0.074,1.242,0.065,2.489,0.062,3.733c-0.001,0.21,0,0.419,0.001,0.628
						c0.004,1.278,0.034,2.555,0.188,3.826c0.228,1.878,0.879,3.637,1.863,5.108c2.082,3.112,5.651,4.948,9.855,3.955
						c2.034-0.48,3.872-1.634,5.279-3.167c1.263-1.376,2.117-3.057,2.598-4.855c0.587-2.196,0.654-4.493,0.611-6.754
						c-0.002-0.104-0.003-0.207-0.006-0.311c-0.057-2.535,0.059-5.014-1.211-7.31c-1.79-3.238-5.728-5.265-9.361-5.457
						c-2.232-0.118-4.649,0.982-6.468,2.206c-0.699,0.47-1.332,1.045-1.85,1.707c-0.469,0.602-0.843,1.276-1.084,2.008
						C493.113,207.16,493.035,208.804,493.126,210.351z"/>
          <path style="fill:#232033;" d="M491.045,211.647c-0.006,0.188-0.009,0.374-0.008,0.559c0.054,0.634,0.114,1.264,0.175,1.888
						c0.006,0.066,0.012,0.13,0.018,0.196c0.009,0.089,0.015,0.178,0.022,0.265c0.751-0.317,1.4-0.833,1.874-1.487
						c0.509-0.699,0.82-1.552,0.848-2.48c0.002-0.052,0.002-0.104,0.002-0.155c0.982-0.585,1.723-1.541,2.025-2.678
						c0.025-0.095,0.047-0.191,0.066-0.288c1.286-0.034,2.461-0.539,3.352-1.354c0.876,0.782,2.021,1.271,3.286,1.309
						c0.358,0.011,0.706-0.016,1.045-0.073c0.626,2.072,2.518,3.609,4.802,3.678c0.397,0.012,0.784-0.023,1.157-0.097
						c-0.238,0.518-0.378,1.091-0.396,1.697c-0.063,2.103,1.369,3.903,3.336,4.379c0.29,0.071,0.592,0.112,0.903,0.121
						c2.118,0.064,3.735-1.35,4.348-3.236c0.078-0.242,0.139-0.491,0.182-0.745c0.007-0.031,0.012-0.063,0.017-0.095
						c0.577-3.724-0.697-7.6-2.807-10.631c-1.154-1.656-2.556-3.16-4.247-4.262c-0.122-0.08-0.246-0.157-0.371-0.232
						c-2.097-1.259-4.435-1.781-6.73-1.636c-2.551,0.161-5.051,1.143-7.115,2.852C493.15,202.185,491.186,206.933,491.045,211.647z"/>
          <path style="fill:#5A2210;" d="M513.681,213.815c0.746-0.477,1.773-0.65,2.502-0.147c0.54,0.372,0.814,1.057,0.79,1.712
						c-0.024,0.655-0.315,1.279-0.713,1.8c-1.166,1.529-3.125,2.187-4.983,2.681l0.526-4.181
						C512.39,215.017,512.934,214.292,513.681,213.815z"/>
        </g>
        <path style="fill:#9AE1FF;" d="M513.724,203.966c0.002,0.001,0.013,0.004,0.013,0.004v0.021
					C513.732,203.983,513.729,203.974,513.724,203.966z"/>
        <g>
          <path style="fill:#151B1C;" d="M512.954,217.392c-0.107-0.614,0.15-1.276,0.636-1.664c0.491-0.392,1.217-0.481,1.79-0.226
						c0.112,0.05,0.245,0.033,0.312-0.082c0.057-0.097,0.031-0.262-0.082-0.312c-0.758-0.337-1.655-0.246-2.311,0.272
						c-0.636,0.502-0.922,1.346-0.785,2.134c0.021,0.121,0.17,0.19,0.281,0.159C512.923,217.638,512.975,217.514,512.954,217.392
						L512.954,217.392z"/>
        </g>
        <g>
          <path style="fill:#151B1C;" d="M513.571,215.976c0.016,0.006,0.032,0.013,0.048,0.019c0.024,0.009-0.026-0.012,0.013,0.006
						c0.032,0.014,0.063,0.029,0.095,0.044c0.063,0.031,0.124,0.064,0.184,0.099c0.06,0.035,0.119,0.073,0.176,0.113
						c0.029,0.02,0.057,0.04,0.085,0.061c0.033,0.025-0.008-0.007,0.012,0.009c0.013,0.011,0.027,0.022,0.041,0.033
						c0.104,0.086,0.203,0.18,0.293,0.281c0.023,0.026,0.046,0.052,0.068,0.079c0.011,0.013,0.022,0.027,0.033,0.04
						c0.042,0.051-0.014-0.019,0.009,0.011c0.043,0.059,0.085,0.118,0.125,0.18c0.064,0.1,0.206,0.151,0.312,0.082
						c0.1-0.065,0.151-0.205,0.082-0.312c-0.347-0.542-0.855-0.951-1.453-1.185c-0.111-0.044-0.255,0.048-0.281,0.159
						C513.381,215.826,513.451,215.929,513.571,215.976L513.571,215.976z"/>
        </g>
        <g>
          <path style="fill:#151B1C;" d="M500.324,213.526c0.188,0.623,0.121,1.258-0.202,1.825c-0.161,0.283-0.368,0.534-0.604,0.758
						c-0.197,0.188-0.463,0.336-0.604,0.576c-0.241,0.412-0.061,0.909,0.252,1.227c0.378,0.383,0.934,0.536,1.451,0.391
						c0.282-0.079,0.162-0.52-0.121-0.44c-0.435,0.122-0.93-0.064-1.154-0.466c-0.267-0.479,0.226-0.699,0.525-0.989
						c0.816-0.792,1.234-1.886,0.897-3.003C500.679,213.124,500.239,213.244,500.324,213.526L500.324,213.526z"/>
        </g>
        <path style="fill:#391106;" d="M497.723,217.814c-0.191,0.662-1.141,0.969-2.121,0.686c-0.98-0.283-1.619-1.049-1.428-1.711
					c0.191-0.662,1.141-0.969,2.121-0.686C497.275,216.386,497.914,217.152,497.723,217.814z"/>
        <path style="fill:#391106;" d="M509.292,216.918c0.148,0.673-0.54,1.396-1.536,1.615c-0.996,0.219-1.924-0.149-2.072-0.823
					c-0.148-0.673,0.54-1.396,1.536-1.615C508.217,215.876,509.145,216.245,509.292,216.918z"/>
        <path style="fill:#151B1C;" d="M498.271,214.612c0,0.588-0.238,1.064-0.533,1.064c-0.294,0-0.533-0.476-0.533-1.064
					c0-0.588,0.238-1.064,0.533-1.064C498.032,213.548,498.271,214.025,498.271,214.612z"/>
        <path style="fill:#151B1C;" d="M504.465,214.612c0,0.588,0.238,1.064,0.533,1.064c0.294,0,0.533-0.476,0.533-1.064
					c0-0.588-0.238-1.064-0.533-1.064C504.703,213.548,504.465,214.025,504.465,214.612z"/>
        <g>
          <path style="fill:#232033;" d="M506.458,211.86c-0.655,0.094-1.273-0.249-1.929-0.308c-0.568-0.052-1.726-0.293-1.324-1.199
						c0.343-0.772,1.419-0.847,2.13-0.687c0.779,0.175,1.546,0.666,1.65,1.502C507.02,211.445,506.739,211.82,506.458,211.86
						L506.458,211.86z"/>
        </g>
        <g>
          <path style="fill:#232033;" d="M494.796,212.196c-0.17-0.884,0.656-1.494,1.39-1.784c0.359-0.142,0.742-0.218,1.127-0.185
						c0.347,0.029,0.918,0.264,1.107,0.582c0.48,0.804-0.533,1.213-1.139,1.352c-0.64,0.146-1.347,0.651-1.997,0.523
						C495.064,212.64,494.839,212.416,494.796,212.196L494.796,212.196z"/>
        </g>
        <g>
          <g>
            <path style="fill:#F7F7F7;" d="M500.723,219.908c1.023-0.042,1.513-0.427,2.155-0.985c0.705-0.613,1.384-0.972,2.044-0.669
							c1.504,0.691,1.085,2.551-0.021,3.528c-1.182,1.044-3.356,1.316-4.673,0.519C498.91,221.502,499.499,219.958,500.723,219.908z
							"/>
          </g>
        </g>
        <g>
          <g>
            <path style="fill:#355C6D;" d="M505.479,218.831c-0.372,0.41-0.808,0.763-1.273,1.063c-0.225,0.146-0.458,0.287-0.694,0.416
							c-0.249,0.137-0.512,0.274-0.776,0.376c-0.129,0.049-0.081,0.24,0.058,0.209c0.146-0.032,0.298-0.052,0.439-0.098
							c0.142-0.047,0.281-0.1,0.419-0.157c0.275-0.115,0.527-0.25,0.77-0.422c0.485-0.344,0.886-0.77,1.228-1.255
							C505.72,218.861,505.561,218.74,505.479,218.831L505.479,218.831z"/>
          </g>
        </g>
      </g>
      <g>
        <path style="fill:#51BACE;" d="M418.426,235.059h52.434c1.387,0,2.637,0.839,3.163,2.122l16.145,39.377h28.907
					c0.808,0,1.464,0.655,1.464,1.462l0,0c0,0.808-0.655,1.463-1.464,1.463h-82.273c-2.262,0-4.313-1.328-5.239-3.391
					l-16.257-36.214C414.292,237.616,415.946,235.059,418.426,235.059z"/>
        <polygon style="fill:#FFFFFF;" points="453.23,259.783 448.801,259.783 447.525,255.775 451.955,255.775 				"/>
      </g>
      <g>
        <g id="XMLID_4_">
          <g id="XMLID_2_">
            <rect id="XMLID_11_" x="387.693" y="216.504" transform="matrix(0.938 -0.3467 0.3467 0.938 -59.956 150.2221)" style="fill:#498490;" width="4.333" height="52.341"/>
            <rect id="XMLID_17_" x="396.902" y="173.361" transform="matrix(0.7153 0.6988 -0.6988 0.7153 253.0452 -222.0674)" style="fill:#498490;" width="4.333" height="52.341"/>
            <g id="XMLID_5_">
              <ellipse id="XMLID_6_" transform="matrix(0.7071 -0.7071 0.7071 0.7071 -73.4923 361.5337)" style="fill:#233D44;" cx="399.664" cy="269.48" rx="6.258" ry="6.258"/>
              <ellipse id="XMLID_12_" transform="matrix(0.7071 -0.7071 0.7071 0.7071 -73.4923 361.5337)" style="fill:#73B5B7;" cx="399.664" cy="269.48" rx="2.389" ry="2.389"/>
            </g>
            <g id="XMLID_14_">
              <ellipse id="XMLID_16_" transform="matrix(0.2278 -0.9737 0.9737 0.2278 82.8076 539.171)" style="fill:#233D44;" cx="381.344" cy="217.376" rx="6.258" ry="6.258"/>
              <ellipse id="XMLID_15_" transform="matrix(0.229 -0.9734 0.9734 0.229 82.4136 538.8051)" style="fill:#73B5B7;" cx="381.344" cy="217.376" rx="2.389" ry="2.389"/>
            </g>
            <g id="XMLID_22_">
              <ellipse id="XMLID_24_" transform="matrix(0.2278 -0.9737 0.9737 0.2278 145.6826 546.1381)" style="fill:#233D44;" cx="417.174" cy="181.218" rx="6.258" ry="6.258"/>
              <circle id="XMLID_23_" style="fill:#73B5B7;" cx="417.174" cy="181.218" r="2.389"/>
            </g>
            <path id="XMLID_13_" style="fill:#498490;" d="M415.534,282.755h-32.931l0,0c0-3.219,2.61-5.829,5.829-5.829h21.273
							C412.925,276.926,415.534,279.536,415.534,282.755L415.534,282.755z"/>
            <rect id="XMLID_18_" x="389.992" y="269.821" style="fill:#33606A;" width="19.343" height="7.105"/>
            <g id="XMLID_19_">
              <path id="XMLID_32_" style="fill:#35636A;" d="M448.776,181.809l-25.264,17.475c-4.827-6.979-3.085-16.542,3.894-21.369
								c2.979-2.061,6.422-2.933,9.782-2.688C441.677,175.529,446.009,177.809,448.776,181.809z"/>
              <path id="XMLID_30_" style="fill:#498490;" d="M448.776,181.809l-21.201,14.664c-3.961-5.726-1.512-14.268,5.467-19.096
								c1.326-0.917,2.727-1.637,4.146-2.152C441.677,175.529,446.009,177.809,448.776,181.809z"/>
              <rect id="XMLID_20_" x="419.667" y="166.626" transform="matrix(0.8224 -0.5689 0.5689 0.8224 -22.2442 270.8362)" style="fill:#498490;" width="6.066" height="8.845"/>
              <path id="XMLID_21_" style="fill:#5294A2;" d="M433.892,175.496l-11.042,7.638l-2.089-3.02
								c-1.169-1.689-0.746-4.006,0.943-5.175l4.925-3.406c1.689-1.169,4.006-0.746,5.175,0.943L433.892,175.496z"/>
              <path id="XMLID_3_" style="fill:#73B5B7;" d="M440.972,177.838c1.737,1.028,2.509,2.937,1.724,4.263
								c-0.785,1.326-2.83,1.567-4.567,0.539c-1.737-1.028-2.509-2.937-1.724-4.263C437.19,177.051,439.235,176.81,440.972,177.838z
								"/>
            </g>
          </g>
        </g>
        <polygon id="XMLID_202_" style="opacity:0.23;fill:#FFFFFF;" points="422.843,198.301 436.691,281.816 585.411,281.773 
					448.106,180.826 				"/>
      </g>
      <g>
        <g>
          <rect x="363.658" y="277.67" style="fill:#3E7FA5;" width="182.449" height="5.269"/>
          <path style="fill:#2B6182;" d="M575.037,277.67h-28.93v5.269h28.93c1.455,0,2.635-1.18,2.635-2.635l0,0
						C577.672,278.85,576.492,277.67,575.037,277.67z"/>
        </g>
        <g>
          <rect x="365.958" y="282.939" style="fill:#2B6182;" width="172.55" height="14.312"/>
          <rect x="538.508" y="282.939" style="fill:#1D465C;" width="30.98" height="14.312"/>
        </g>
        <g>
          <path style="fill:#1D465C;" d="M524.017,392.058c0.096,1.832,1.609,3.269,3.444,3.269h0c1.905,0,3.449-1.544,3.449-3.449
						v-94.627h-12.567L524.017,392.058z"/>
          <path style="fill:#173747;" d="M556.985,390.067c0.105,2.007,1.763,3.581,3.772,3.581c2.086,0,3.778-1.691,3.778-3.778v-92.619
						h-13.766L556.985,390.067z"/>
          <polygon style="fill:#173747;" points="497.851,297.284 519.472,318.905 518.342,297.251 					"/>
        </g>
      </g>
      <g>
        <g>
          <path style="fill:#EEE9E9;" d="M393.369,287.307H285.403c0,0,1.885,7.814,1.885,16.309c0,8.25-1.885,16.309-1.885,16.309
						h107.966c3.829,0,6.935-3.105,6.935-6.935v-18.741C400.303,290.412,397.198,287.307,393.369,287.307z"/>
          <path style="fill:#1DA5B4;" d="M283.947,282.871c-1.227,0-2.218,0.998-2.218,2.218c0,0.614,0.244,1.168,0.651,1.567
						c0.399,0.407,0.954,0.651,1.567,0.651h1.456h107.966c3.829,0,6.935,3.105,6.935,6.942v18.741c0,3.83-3.105,6.935-6.935,6.935
						H285.403h-1.456c-1.227,0-2.218,0.991-2.218,2.218c0,0.614,0.244,1.161,0.651,1.567c0.399,0.399,0.954,0.651,1.567,0.651
						h109.422c6.284,0,11.37-5.094,11.37-11.37v-18.748c0-6.277-5.086-11.37-11.37-11.37H283.947z"/>
          <path style="fill:#8694D8;" d="M386.248,293.62c-6.393-0.286-12.786-0.477-19.18-0.575c-6.393-0.118-12.787-0.149-19.18-0.164
						c-6.393,0.013-12.787,0.044-19.18,0.162c-6.393,0.097-12.787,0.29-19.18,0.577c6.393,0.287,12.787,0.48,19.18,0.577
						c6.393,0.118,12.787,0.149,19.18,0.162c6.393-0.015,12.787-0.046,19.18-0.164C373.461,294.098,379.855,293.906,386.248,293.62z
						"/>
          <path style="fill:#8694D8;" d="M390.246,303.616c-2.416-0.306-4.831-0.466-7.247-0.575c-2.416-0.118-4.831-0.149-7.247-0.164
						c-2.416,0.013-4.831,0.044-7.247,0.162c-2.416,0.108-4.831,0.269-7.247,0.577c2.416,0.308,4.831,0.469,7.247,0.577
						c2.416,0.117,4.831,0.149,7.247,0.162c2.416-0.015,4.831-0.046,7.247-0.164C385.415,304.082,387.831,303.922,390.246,303.616z"/>
          <path style="fill:#8694D8;" d="M371.754,313.862c-2.416-0.306-4.831-0.466-7.247-0.575c-2.416-0.118-4.831-0.149-7.247-0.164
						c-2.416,0.013-4.831,0.044-7.247,0.162c-2.416,0.108-4.831,0.269-7.247,0.577c2.416,0.308,4.831,0.469,7.247,0.577
						c2.416,0.118,4.831,0.149,7.247,0.162c2.416-0.015,4.831-0.046,7.247-0.164C366.922,314.328,369.338,314.168,371.754,313.862z"/>
          <path style="fill:#8694D8;" d="M356.501,307.865c-5.582-0.286-11.165-0.477-16.747-0.575
						c-5.582-0.118-11.165-0.149-16.747-0.164c-5.582,0.013-11.165,0.044-16.747,0.162c-5.582,0.097-11.165,0.289-16.747,0.577
						c5.582,0.287,11.165,0.48,16.747,0.577c5.582,0.117,11.165,0.149,16.747,0.162c5.582-0.015,11.165-0.046,16.747-0.164
						C345.336,308.342,350.919,308.15,356.501,307.865z"/>
          <path style="fill:#5160AA;" d="M367.755,323.358c3.269-6.175,3.269-13.567,0-19.742c6.164,0,12.328,0,18.493,0
						c3.269,6.175,3.269,13.567,0,19.742c-2.192-1.68-4.627-3.451-7.303-5.263C375.457,319.907,371.727,321.678,367.755,323.358z"/>
        </g>
        <g>
          <g>
            <path style="fill:#ADE3EE;" d="M385.175,377.047c0,0-2.27,7.4,0.089,16.486l7.896-0.658l22.445-1.715v-0.007
							c0,0-0.68-3.586-0.68-7.785c0-3.859,0.68-7.792,0.68-7.792l-22.12,1.05L385.175,377.047z"/>
            <path style="fill:#8AD9E6;" d="M382.81,373.58c0,0-4.391,10.217,0,23.443l33.394-2.203c0.717-0.052,1.279-0.902,1.257-1.915
							c-0.03-0.998-0.621-1.782-1.323-1.782c-0.022,0-0.037,0-0.059,0l-0.473,0.037l-22.445,1.715l-7.896,0.658
							c-2.358-9.086-0.089-16.486-0.089-16.486l8.31-0.421l22.12-1.05l0.54-0.03c0.71-0.037,1.272-0.85,1.272-1.848
							c0-1.013-0.591-1.841-1.309-1.841c-0.022,0-0.037,0-0.059,0L382.81,373.58z"/>
            <polygon style="fill:#56CBE0;" points="283.22,370.379 286.407,370.379 382.81,373.58 416.048,371.857 319.039,369.93 						
							"/>
            <path style="fill:#56CBE0;" d="M283.22,370.379c0,0-4.643,13.706-0.518,23.879h3.704l96.403,2.765
							c-4.391-13.226,0-23.443,0-23.443l-96.403-3.201H283.22z"/>
          </g>
          <path style="fill:#80CBD8;" d="M384.665,381.741c3.477,0.162,6.94,0.051,10.398-0.126c3.457-0.205,6.91-0.478,10.348-1.026
						c-3.477-0.164-6.94-0.053-10.398,0.126C391.556,380.922,388.103,381.195,384.665,381.741z"/>
          <path style="fill:#80CBD8;" d="M402.402,387.292c1.938,0.173,3.849,0.072,5.755-0.093c1.903-0.194,3.799-0.454,5.67-0.99
						c-1.938-0.175-3.849-0.074-5.755,0.093C406.17,386.498,404.273,386.758,402.402,387.292z"/>
          <path style="fill:#56CEE2;" d="M399.846,390.183c1.435-2.225,1.169-7.291-0.492-9.353c-2.92,0.154-5.841,0.307-8.761,0.461
						c1.661,2.062,1.928,7.127,0.492,9.353c1.804-0.693,3.547-1.574,5.167-2.558C397.552,388.916,398.73,389.644,399.846,390.183z"/>
          <path style="fill:#56CEE2;" d="M374.668,396.761c-4.13-10.175,0.507-23.449,0.507-23.449h-9.013c0,0-4.636,13.274-0.507,23.449
						H374.668z"/>
          <path style="fill:#56CEE2;" d="M298.948,394.699c-4.13-10.175,0.507-23.449,0.507-23.449h-9.013c0,0-4.636,13.274-0.506,23.449
						H298.948z"/>
        </g>
        <g>
          <g>
            <path style="fill:#3C7580;" d="M325.064,349.707l2.281,0.206c-5.678,0.405-9.948,5.328-9.543,11.005l0.223,3.146
							c0.339,4.737,3.835,8.497,8.287,9.367l-36.671-2.943c-6.113-0.593-10.565-6.054-9.936-12.159l0.175-1.69
							c0.621-6.023,5.956-10.426,11.988-9.887l0.007,0L325.064,349.707z"/>
            <polygon style="fill:#3C7580;" points="413.359,347.957 327.345,349.913 325.064,349.707 291.876,346.753 291.868,346.753 
							291.469,346.717 						"/>
            <path style="fill:#4193A0;" d="M410.886,351.422l-83.356,2.183c-1.88,0.155-3.581,1.089-4.737,2.616
							c-0.997,1.33-1.408,3.009-1.287,4.675l0.213,2.902c0.242,3.383,3.082,6.082,6.468,6.136c0.192,0.003,0.392-0.009,0.584-0.02
							l0.089-0.006l82.138-1.863l2.041-0.049c0.962-0.022,1.748,0.767,1.732,1.728l-0.005,0.303
							c-0.014,0.909-0.743,1.644-1.653,1.667l-84.076,1.906c-0.933,0.066-1.849,0.008-2.726-0.169
							c-4.452-0.87-7.948-4.63-8.287-9.367l-0.223-3.146c-0.405-5.677,3.866-10.6,9.543-11.005l86.014-1.956
							c0.962-0.022,1.748,0.76,1.732,1.728c-0.015,0.909-0.736,1.645-1.646,1.667L410.886,351.422z"/>
            <path style="fill:#ADE3EE;" d="M410.998,368.045l-82.138,1.863l-0.089,0.006c-0.192,0.012-0.392,0.023-0.584,0.02
							c-3.385-0.054-6.226-2.754-6.468-6.136l-0.213-2.902c-0.121-1.666,0.29-3.345,1.287-4.675
							c1.156-1.527,2.856-2.461,4.737-2.616l83.356-2.183c-0.032,0.147-1.087,5.107-1.138,8.293
							C409.698,362.886,410.998,368.045,410.998,368.045z"/>
          </g>
          <path style="fill:#80CBD8;" d="M328.729,358.422c2.406-0.401,4.817-0.657,7.23-0.861c2.413-0.214,4.829-0.341,7.246-0.451
						c2.418-0.083,4.837-0.147,7.259-0.125c2.422,0.013,4.846,0.078,7.275,0.29c-2.405,0.403-4.817,0.659-7.23,0.863
						c-2.413,0.213-4.829,0.34-7.246,0.449c-2.418,0.081-4.837,0.145-7.259,0.123C333.582,358.696,331.158,358.632,328.729,358.422z
						"/>
          <path style="fill:#80CBD8;" d="M348.613,365.182c2.405-0.401,4.817-0.657,7.23-0.861c2.413-0.213,4.829-0.34,7.246-0.451
						c2.418-0.083,4.837-0.147,7.259-0.125c2.422,0.013,4.846,0.078,7.275,0.29c-2.405,0.403-4.817,0.659-7.23,0.863
						c-2.413,0.213-4.829,0.34-7.246,0.449c-2.418,0.081-4.837,0.145-7.259,0.123C353.466,365.457,351.042,365.392,348.613,365.182z
						"/>
          <path style="fill:#4C9CAA;" d="M351.891,377.731c3.34-4.472,3.555-15.539,0.359-20.115c-6.163-0.098-11.64,0.553-17.803,0.454
						c3.196,4.576,2.294,14.893-1.046,19.366c3.893-1.196,7.686-2.798,11.236-4.634C347.25,374.736,349.621,376.436,351.891,377.731
						z"/>
          <path style="fill:#80CBD8;" d="M369.913,360.857c3.311-0.401,6.626-0.656,9.942-0.86c3.316-0.213,6.635-0.34,9.954-0.45
						c3.32-0.082,6.641-0.146,9.964-0.124c3.323,0.013,6.647,0.078,9.976,0.291c-3.311,0.403-6.626,0.659-9.943,0.863
						c-3.316,0.213-6.635,0.34-9.954,0.448c-3.32,0.081-6.641,0.144-9.964,0.122C376.565,361.132,373.241,361.067,369.913,360.857z"/>
        </g>
        <g>
          <g>
            <path style="fill:#EEE9E9;" d="M366.177,330.18c0,0-3.186,7.4,0.118,16.486l12.546-0.688l31.464-1.715v-0.007
							c0,0-0.954-3.586-0.954-7.785c0-3.859,0.954-7.792,0.954-7.792v-0.007l-31.013,1.057L366.177,330.18z"/>
            <path style="fill:#CCC65E;" d="M410.963,344.227l-0.658,0.037l-31.464,1.715l-12.546,0.688
							c-3.305-9.086-0.118-16.486-0.118-16.486l13.115-0.451l31.013-1.057l0.747-0.022c0.998-0.037,1.782-0.85,1.782-1.848
							c0-1.013-0.828-1.841-1.833-1.841c-0.03,0-0.052,0-0.081,0l-46.583,1.723c0,0-6.151,10.217,0,23.443l46.804-2.203
							c1.005-0.052,1.789-0.902,1.76-1.915c-0.037-0.998-0.865-1.782-1.856-1.782C411.015,344.227,410.992,344.227,410.963,344.227z
							"/>
            <polygon style="fill:#E2DE88;" points="410.919,324.961 283.266,323.349 283.968,323.379 364.336,326.683 						"/>
            <path style="fill:#FFFC9C;" d="M362.778,326.619l-78.81-3.241c-3.926-0.155-7.201,2.979-7.223,6.912l-0.052,9.818
							c-0.022,3.756,2.935,6.846,6.683,6.986l80.959,3.031c-6.151-13.226,0-23.443,0-23.443L362.778,326.619z"/>
          </g>
          <path style="fill:#8694D8;" d="M366.41,336.52c2.433,0.171,4.857,0.197,7.279,0.172c2.422-0.016,4.84-0.119,7.256-0.238
						c2.415-0.147,4.829-0.313,7.238-0.564c2.41-0.242,4.816-0.537,7.215-0.978c-2.433-0.173-4.857-0.2-7.279-0.174
						c-2.422,0.017-4.84,0.119-7.256,0.241c-2.415,0.149-4.829,0.314-7.238,0.566C371.216,335.786,368.809,336.08,366.41,336.52z"/>
          <path style="fill:#8694D8;" d="M392.118,340.396c2.693,0.174,5.367,0.073,8.037-0.092c2.668-0.194,5.331-0.454,7.976-0.991
						c-2.693-0.176-5.367-0.075-8.037,0.092C397.426,339.601,394.763,339.861,392.118,340.396z"/>
          <path style="fill:#5C72E0;" d="M387.802,351.001c2.457-3.619,2.208-12.212-0.455-15.682c-4.828,0.14-9.479,0.736-14.307,0.876
						c2.664,3.47,2.734,11.608,0.276,15.227c3.006-1.074,5.919-2.462,8.633-4.024C384.063,348.82,385.979,350.068,387.802,351.001z"/>
        </g>
      </g>
      <g>
        <path style="fill:#51BACE;" d="M591.438,390.7c0,0-19.116-5.006-19.66-20.322c-0.39-10.985,8.955-14.679,1.481-23.911
					c-13.383-16.533,6.594-30.974,15.488-24.238c8.893,6.736,15.355,20.478,11.323,27.841s11.622,13.91,15.931,22.415
					c3.855,7.609-3.676,18.209-3.676,18.209L591.438,390.7z"/>
        <g>
          <path style="fill:#F0F0F1;" d="M601.691,390.724c-0.518-6.282-3.723-11.901-9.525-16.7c-4.832-3.997-6.68-13.378-4.298-21.82
						c2.318-8.217-4.27-19.236-4.337-19.347l0.639-0.387c0.28,0.461,6.824,11.404,4.417,19.936
						c-2.306,8.176-0.563,17.222,4.055,21.042c5.963,4.933,9.258,10.725,9.794,17.215L601.691,390.724z"/>
        </g>
        <path style="fill:#148FA2;" d="M608.705,390.729c0,0-19.101-18.796-10.3-37.134c6.312-13.152,19.573-11.734,16.479-27.191
					c-5.54-27.682,26.842-32.342,33.143-18.943c6.301,13.399,5.426,33.533-3.851,39.702c-9.277,6.169,3.921,23.699-1.4,35.18
					c-3.872,8.354-8.595,8.354-8.595,8.354L608.705,390.729z"/>
        <g>
          <path style="fill:#F0F0F1;" d="M623.272,390.796c-0.018-0.13-1.83-13.063-3.385-20.574c-1.599-7.732,0.335-19.283,8.262-27.658
						c7.638-8.071,6.704-24.753,6.694-24.92l0.971-0.06c0.043,0.701,0.972,17.269-6.959,25.649
						c-7.686,8.121-9.565,19.308-8.016,26.793c1.56,7.542,3.377,20.507,3.395,20.637L623.272,390.796z"/>
        </g>
      </g>
    </g>
  </g>
</svg>
