<?xml version="1.0" encoding="UTF-8"?>
<svg version="1.1" xmlns="http://www.w3.org/2000/svg" width="1600" height="1600">
<path d="M0 0 C1.04530884 0.00060425 2.09061768 0.0012085 3.16760254 0.00183105 C21.45632993 0.03032575 39.58869439 0.55662945 57.8125 2.1875 C58.50206787 2.2483075 59.19163574 2.30911499 59.90209961 2.37176514 C96.03344044 5.59135889 131.75593829 11.69372025 166.89355469 20.6965332 C168.75347109 21.17239731 170.61499443 21.64196688 172.4765625 22.11132812 C234.77802997 37.9605476 295.26786776 64.24956044 349.8125 98.1875 C350.70952637 98.744375 351.60655273 99.30125 352.53076172 99.875 C364.9154798 107.59042319 377.00738679 115.61323151 388.8125 124.1875 C389.57127441 124.73374023 390.33004883 125.27998047 391.11181641 125.84277344 C402.06769386 133.73496706 412.63490646 141.97805425 422.97753906 150.65673828 C425.52355391 152.78067563 428.10595652 154.85690759 430.6875 156.9375 C435.35701898 160.74964144 439.81547354 164.76196997 444.25 168.84375 C446.46934276 170.87363667 448.71922034 172.85245498 451 174.8125 C454.43993357 177.79704521 457.6262356 180.98277234 460.8203125 184.2265625 C462.71577074 186.09228806 464.66696735 187.83409255 466.6875 189.5625 C473.69419579 195.60560305 480.09127762 202.23170482 486.1015625 209.2578125 C487.93049863 211.32058521 489.84830458 213.2534072 491.8125 215.1875 C495.69275687 219.02332645 499.267571 223.04265994 502.8125 227.1875 C503.71822194 228.22962585 504.62451803 229.27125285 505.53125 230.3125 C512.03654417 237.8076143 518.30338954 245.44940647 524.36328125 253.30859375 C525.89369722 255.29277187 527.43136187 257.27122063 528.96875 259.25 C551.88093311 288.85547575 571.91202041 320.32550358 589.8125 353.1875 C590.3266748 354.12787109 590.84084961 355.06824219 591.37060547 356.03710938 C616.48247786 402.22399605 634.86050252 452.300604 647.8125 503.1875 C648.10962891 504.34217773 648.40675781 505.49685547 648.71289062 506.68652344 C657.34545928 540.62436688 662.73804391 575.32261799 665.8125 610.1875 C665.87201843 610.85257568 665.93153687 611.51765137 665.99285889 612.20288086 C669.27154818 649.28266797 669.12993125 687.11759147 665.8125 724.1875 C665.7516925 724.87706787 665.69088501 725.56663574 665.62823486 726.27709961 C658.51621254 806.09055514 636.98889422 883.43888149 569.8125 1016.1875 C569.255625 1017.08452637 568.69875 1017.98155273 568.125 1018.90576172 C544.90435776 1056.17929822 517.8550417 1091.15640775 487.8125 1123.1875 C487.1613623 1123.88375488 486.51022461 1124.58000977 485.83935547 1125.29736328 C483.72821384 1127.55427069 481.61466422 1129.80889306 479.5 1132.0625 C478.84225586 1132.76415283 478.18451172 1133.46580566 477.50683594 1134.1887207 C466.48917242 1145.89533614 466.48917242 1145.89533614 460.875 1150.625 C458.11716668 1152.99715931 455.53292312 1155.45203842 453 1158.0625 C449.13354546 1161.9893679 444.95131026 1165.3982621 440.65625 1168.84375 C437.84279056 1171.16253525 435.17016512 1173.58081712 432.5 1176.0625 C426.82047004 1181.27609964 420.84980321 1186.01437513 414.73974609 1190.70605469 C412.73398803 1192.24785098 410.7359689 1193.79932754 408.73828125 1195.3515625 C379.14108002 1218.26508135 347.66903929 1238.289993 314.8125 1256.1875 C313.87212891 1256.7016748 312.93175781 1257.21584961 311.96289062 1257.74560547 C265.77600395 1282.85747786 215.699396 1301.23550252 164.8125 1314.1875 C163.65782227 1314.48462891 162.50314453 1314.78175781 161.31347656 1315.08789062 C127.37563312 1323.72045928 92.67738201 1329.11304391 57.8125 1332.1875 C57.14742432 1332.24701843 56.48234863 1332.30653687 55.79711914 1332.36785889 C18.71733203 1335.64654818 -19.11759147 1335.50493125 -56.1875 1332.1875 C-56.87706787 1332.1266925 -57.56663574 1332.06588501 -58.27709961 1332.00323486 C-138.09055514 1324.89121254 -215.43888149 1303.36389422 -348.1875 1236.1875 C-349.08452637 1235.630625 -349.98155273 1235.07375 -350.90576172 1234.5 C-363.2904798 1226.78457681 -375.38238679 1218.76176849 -387.1875 1210.1875 C-387.94627441 1209.64125977 -388.70504883 1209.09501953 -389.48681641 1208.53222656 C-400.44269386 1200.64003294 -411.00990646 1192.39694575 -421.35253906 1183.71826172 C-423.89855391 1181.59432437 -426.48095652 1179.51809241 -429.0625 1177.4375 C-433.73201898 1173.62535856 -438.19047354 1169.61303003 -442.625 1165.53125 C-444.84434276 1163.50136333 -447.09422034 1161.52254502 -449.375 1159.5625 C-452.81493357 1156.57795479 -456.0012356 1153.39222766 -459.1953125 1150.1484375 C-461.09077074 1148.28271194 -463.04196735 1146.54090745 -465.0625 1144.8125 C-472.06919579 1138.76939695 -478.46627762 1132.14329518 -484.4765625 1125.1171875 C-486.30549863 1123.05441479 -488.22330458 1121.1215928 -490.1875 1119.1875 C-494.06775687 1115.35167355 -497.642571 1111.33234006 -501.1875 1107.1875 C-502.09322194 1106.14537415 -502.99951803 1105.10374715 -503.90625 1104.0625 C-510.41154417 1096.5673857 -516.67838954 1088.92559353 -522.73828125 1081.06640625 C-524.26869722 1079.08222813 -525.80636187 1077.10377937 -527.34375 1075.125 C-550.25593311 1045.51952425 -570.28702041 1014.04949642 -588.1875 981.1875 C-588.7016748 980.24712891 -589.21584961 979.30675781 -589.74560547 978.33789062 C-629.05566516 906.03705841 -653.81071983 823.91258951 -666.375 668 C-666.37439575 666.95469116 -666.3737915 665.90938232 -666.37316895 664.83239746 C-666.34467425 646.54367007 -665.81837055 628.41130561 -664.1875 610.1875 C-664.1266925 609.49793213 -664.06588501 608.80836426 -664.00323486 608.09790039 C-660.78364111 571.96655956 -654.68127975 536.24406171 -645.6784668 501.10644531 C-645.20260269 499.24652891 -644.73303312 497.38500557 -644.26367188 495.5234375 C-623.35478275 413.33298782 -584.53420185 334.31189011 -519.1875 249.1875 C-518.50300781 248.33929688 -517.81851563 247.49109375 -517.11328125 246.6171875 C-507.72741813 235.0575787 -498.02058136 223.82388349 -487.84277344 212.95605469 C-486.02935703 211.01853427 -484.22167681 209.07574645 -482.4140625 207.1328125 C-465.31189018 188.7803564 -465.31189018 188.7803564 -456.0859375 180.8671875 C-454.20779247 179.20545424 -452.44444484 177.47624475 -450.6875 175.6875 C-447.02465365 171.97548793 -443.1464256 168.57904334 -439.1875 165.1875 C-438.09742247 164.245062 -437.00759893 163.30233018 -435.91796875 162.359375 C-429.11925467 156.48771582 -422.25968232 150.72899081 -415.1875 145.1875 C-413.88275379 144.15111558 -412.57807203 143.11465001 -411.2734375 142.078125 C-400.20979107 133.33277653 -388.83406061 125.13642214 -377.1875 117.1875 C-376.35379883 116.61531738 -375.52009766 116.04313477 -374.66113281 115.45361328 C-354.43791488 101.60824682 -333.44484475 89.09676266 -311.81103516 77.58740234 C-309.255868 76.22398075 -306.71146138 74.84208177 -304.16796875 73.45703125 C-230.32466557 33.5930003 -146.3299733 10.81605497 0 0 Z " fill="#F34336" transform="translate(799.1875,132.8125)"/>
<path d="M0 0 C5.15320955 4.31227549 9.97347273 8.83302993 14.71324158 13.59298706 C15.45834553 14.33723659 16.20344948 15.08148611 16.97113234 15.84828866 C19.45310472 18.32862135 21.93149942 20.81249748 24.40991211 23.29638672 C26.19395831 25.08071514 27.97822504 26.8648231 29.76269531 28.64872742 C33.59680984 32.48261464 37.42939224 36.31802307 41.26057243 40.15484238 C46.79973008 45.70214778 52.34166664 51.24667015 57.88427228 56.79053022 C66.87801349 65.7864568 75.86952203 74.78461148 84.85961914 83.78417969 C93.58956307 92.52331105 102.32056294 101.26138523 111.05297852 109.99804688 C111.59178565 110.53711673 112.13059279 111.07618659 112.68572741 111.6315919 C115.38893263 114.33610222 118.09215856 117.04059184 120.79539478 119.74507117 C143.20014049 142.16017348 165.60122216 164.57893412 188 187 C190.98626139 185.65760953 193.07232948 184.17689501 195.38140488 181.86469078 C196.03379725 181.2162805 196.68618963 180.56787022 197.35835147 179.89981115 C198.06652554 179.1858114 198.77469961 178.47181165 199.5043335 177.73617554 C200.26320838 176.9790095 201.02208327 176.22184346 201.80395436 175.441733 C204.35292488 172.89606429 206.89466793 170.34329899 209.43652344 167.79052734 C211.25932087 165.96716595 213.08255845 164.14424448 214.90620422 162.32173157 C218.83546876 158.39351587 222.76105405 154.46165413 226.68416595 150.52729416 C232.35633442 144.83887346 238.03401572 139.15598166 243.71305886 133.47442527 C252.92671761 124.25638898 262.13590094 115.03389496 271.34228516 105.80859375 C280.28558002 96.8469416 289.2309725 87.88739187 298.17919922 78.93066406 C298.73074251 78.37859533 299.28228579 77.82652659 299.85054252 77.2577285 C302.61747874 74.4881822 305.38445632 71.71867721 308.15145445 68.94919276 C331.10738345 45.97252944 354.0560552 22.98863056 377 0 C380.84237116 3.24688561 384.62558022 6.50022237 388.18260193 10.06234741 C388.93267014 10.81104095 389.68273834 11.5597345 390.45553589 12.33111572 C391.25323395 13.13240906 392.05093201 13.93370239 392.87280273 14.75927734 C393.73213913 15.61846771 394.59147552 16.47765808 395.47685242 17.36288452 C397.81289178 19.69949771 400.14670241 22.03829447 402.4795177 24.37812376 C404.92538015 26.83027328 407.37410926 29.27955687 409.82252502 31.72915649 C414.44962953 36.35935862 419.07418085 40.99210201 423.69780165 45.62578261 C428.96552311 50.90471414 434.236113 56.18077784 439.50693595 61.45661235 C450.3411336 72.30123882 461.17175532 83.14942935 472 94 C467.68772451 99.15320955 463.16697007 103.97347273 458.40701294 108.71324158 C457.66276341 109.45834553 456.91851389 110.20344948 456.15171134 110.97113234 C453.67137865 113.45310472 451.18750252 115.93149942 448.70361328 118.40991211 C446.91928486 120.19395831 445.1351769 121.97822504 443.35127258 123.76269531 C439.51738536 127.59680984 435.68197693 131.42939224 431.84515762 135.26057243 C426.29785222 140.79973008 420.75332985 146.34166664 415.20946978 151.88427228 C406.2135432 160.87801349 397.21538852 169.86952203 388.21582031 178.85961914 C379.47668895 187.58956307 370.73861477 196.32056294 362.00195312 205.05297852 C361.46288327 205.59178565 360.92381341 206.13059279 360.3684081 206.68572741 C357.66389778 209.38893263 354.95940816 212.09215856 352.25492883 214.79539478 C329.83982652 237.20014049 307.42106588 259.60122216 285 282 C286.34239047 284.98626139 287.82310499 287.07232948 290.13530922 289.38140488 C291.10792464 290.35999344 291.10792464 290.35999344 292.10018885 291.35835147 C292.8141886 292.06652554 293.52818835 292.77469961 294.26382446 293.5043335 C295.0209905 294.26320838 295.77815654 295.02208327 296.558267 295.80395436 C299.10393571 298.35292488 301.65670101 300.89466793 304.20947266 303.43652344 C306.03283405 305.25932087 307.85575552 307.08255845 309.67826843 308.90620422 C313.60648413 312.83546876 317.53834587 316.76105405 321.47270584 320.68416595 C327.16112654 326.35633442 332.84401834 332.03401572 338.52557473 337.71305886 C347.74361102 346.92671761 356.96610504 356.13590094 366.19140625 365.34228516 C375.1530584 374.28558002 384.11260813 383.2309725 393.06933594 392.17919922 C393.62140467 392.73074251 394.17347341 393.28228579 394.7422715 393.85054252 C397.5118178 396.61747874 400.28132279 399.38445632 403.05080724 402.15145445 C426.02747056 425.10738345 449.01136944 448.0560552 472 471 C468.75311439 474.84237116 465.49977763 478.62558022 461.93765259 482.18260193 C461.18895905 482.93267014 460.4402655 483.68273834 459.66888428 484.45553589 C458.86759094 485.25323395 458.06629761 486.05093201 457.24072266 486.87280273 C455.9519371 488.16180733 455.9519371 488.16180733 454.63711548 489.47685242 C452.30050229 491.81289178 449.96170553 494.14670241 447.62187624 496.4795177 C445.16972672 498.92538015 442.72044313 501.37410926 440.27084351 503.82252502 C435.64064138 508.44962953 431.00789799 513.07418085 426.37421739 517.69780165 C421.09528586 522.96552311 415.81922216 528.236113 410.54338765 533.50693595 C399.69876118 544.3411336 388.85057065 555.17175532 378 566 C372.84679045 561.68772451 368.02652727 557.16697007 363.28675842 552.40701294 C362.54165447 551.66276341 361.79655052 550.91851389 361.02886766 550.15171134 C358.54689528 547.67137865 356.06850058 545.18750252 353.59008789 542.70361328 C351.80604169 540.91928486 350.02177496 539.1351769 348.23730469 537.35127258 C344.40319016 533.51738536 340.57060776 529.68197693 336.73942757 525.84515762 C331.20026992 520.29785222 325.65833336 514.75332985 320.11572772 509.20946978 C311.12198651 500.2135432 302.13047797 491.21538852 293.14038086 482.21582031 C284.41043693 473.47668895 275.67943706 464.73861477 266.94702148 456.00195312 C266.13881078 455.19334834 266.13881078 455.19334834 265.31427259 454.3684081 C262.61106737 451.66389778 259.90784144 448.95940816 257.20460522 446.25492883 C234.79985951 423.83982652 212.39877784 401.42106588 190 379 C187.01373861 380.34239047 184.92767052 381.82310499 182.61859512 384.13530922 C181.96620275 384.7837195 181.31381037 385.43212978 180.64164853 386.10018885 C179.93347446 386.8141886 179.22530039 387.52818835 178.4956665 388.26382446 C177.73679162 389.0209905 176.97791673 389.77815654 176.19604564 390.558267 C173.64707512 393.10393571 171.10533207 395.65670101 168.56347656 398.20947266 C166.74067913 400.03283405 164.91744155 401.85575552 163.09379578 403.67826843 C159.16453124 407.60648413 155.23894595 411.53834587 151.31583405 415.47270584 C145.64366558 421.16112654 139.96598428 426.84401834 134.28694114 432.52557473 C125.07328239 441.74361102 115.86409906 450.96610504 106.65771484 460.19140625 C97.71441998 469.1530584 88.7690275 478.11260813 79.82080078 487.06933594 C79.26925749 487.62140467 78.71771421 488.17347341 78.14945748 488.7422715 C75.38252126 491.5118178 72.61554368 494.28132279 69.84854555 497.05080724 C46.89261655 520.02747056 23.9439448 543.01136944 1 566 C-2.84237116 562.75311439 -6.62558022 559.49977763 -10.18260193 555.93765259 C-10.93267014 555.18895905 -11.68273834 554.4402655 -12.45553589 553.66888428 C-13.25323395 552.86759094 -14.05093201 552.06629761 -14.87280273 551.24072266 C-16.16180733 549.9519371 -16.16180733 549.9519371 -17.47685242 548.63711548 C-19.81289178 546.30050229 -22.14670241 543.96170553 -24.4795177 541.62187624 C-26.92538015 539.16972672 -29.37410926 536.72044313 -31.82252502 534.27084351 C-36.44962953 529.64064138 -41.07418085 525.00789799 -45.69780165 520.37421739 C-50.96552311 515.09528586 -56.236113 509.81922216 -61.50693595 504.54338765 C-72.3411336 493.69876118 -83.17175532 482.85057065 -94 472 C-89.68772451 466.84679045 -85.16697007 462.02652727 -80.40701294 457.28675842 C-79.66276341 456.54165447 -78.91851389 455.79655052 -78.15171134 455.02886766 C-75.67137865 452.54689528 -73.18750252 450.06850058 -70.70361328 447.59008789 C-68.91928486 445.80604169 -67.1351769 444.02177496 -65.35127258 442.23730469 C-61.51738536 438.40319016 -57.68197693 434.57060776 -53.84515762 430.73942757 C-48.29785222 425.20026992 -42.75332985 419.65833336 -37.20946978 414.11572772 C-28.2135432 405.12198651 -19.21538852 396.13047797 -10.21582031 387.14038086 C-1.47668895 378.41043693 7.26138523 369.67943706 15.99804688 360.94702148 C16.53711673 360.40821435 17.07618659 359.86940721 17.6315919 359.31427259 C20.33610222 356.61106737 23.04059184 353.90784144 25.74507117 351.20460522 C48.16017348 328.79985951 70.57893412 306.39877784 93 284 C91.65760953 281.01373861 90.17689501 278.92767052 87.86469078 276.61859512 C87.2162805 275.96620275 86.56787022 275.31381037 85.89981115 274.64164853 C85.1858114 273.93347446 84.47181165 273.22530039 83.73617554 272.4956665 C82.9790095 271.73679162 82.22184346 270.97791673 81.441733 270.19604564 C78.89606429 267.64707512 76.34329899 265.10533207 73.79052734 262.56347656 C71.96716595 260.74067913 70.14424448 258.91744155 68.32173157 257.09379578 C64.39351587 253.16453124 60.46165413 249.23894595 56.52729416 245.31583405 C50.83887346 239.64366558 45.15598166 233.96598428 39.47442527 228.28694114 C30.25638898 219.07328239 21.03389496 209.86409906 11.80859375 200.65771484 C2.8469416 191.71441998 -6.11260813 182.7690275 -15.06933594 173.82080078 C-15.62140467 173.26925749 -16.17347341 172.71771421 -16.7422715 172.14945748 C-19.5118178 169.38252126 -22.28132279 166.61554368 -25.05080724 163.84854555 C-48.02747056 140.89261655 -71.01136944 117.9439448 -94 95 C-90.75311439 91.15762884 -87.49977763 87.37441978 -83.93765259 83.81739807 C-83.18895905 83.06732986 -82.4402655 82.31726166 -81.66888428 81.54446411 C-80.86759094 80.74676605 -80.06629761 79.94906799 -79.24072266 79.12719727 C-78.38153229 78.26786087 -77.52234192 77.40852448 -76.63711548 76.52314758 C-74.30050229 74.18710822 -71.96170553 71.85329759 -69.62187624 69.5204823 C-67.16972672 67.07461985 -64.72044313 64.62589074 -62.27084351 62.17747498 C-57.64064138 57.55037047 -53.00789799 52.92581915 -48.37421739 48.30219835 C-43.09528586 43.03447689 -37.81922216 37.763887 -32.54338765 32.49306405 C-21.69876118 21.6588664 -10.85057065 10.82824468 0 0 Z " fill="#FEFEFE" transform="translate(611,517)"/>
</svg>
